<?xml version="1.0" encoding="UTF-8" standalone="no" ?>
<!DOCTYPE svg PUBLIC "-//W3C//DTD SVG 1.1//EN" "http://www.w3.org/Graphics/SVG/1.1/DTD/svg11.dtd">
<svg xmlns="http://www.w3.org/2000/svg" xmlns:xlink="http://www.w3.org/1999/xlink" version="1.1" width="1080" height="1080" viewBox="0 0 1080 1080" xml:space="preserve">
<desc>Created with Fabric.js 5.2.4</desc>
<defs>
</defs>
<g transform="matrix(1 0 0 1 540 540)" id="18ecd53c-000b-40d6-9f7d-5e0c7f5d2099"  >
<rect style="stroke: none; stroke-width: 1; stroke-dasharray: none; stroke-linecap: butt; stroke-dashoffset: 0; stroke-linejoin: miter; stroke-miterlimit: 4; fill: rgb(255,255,255); fill-rule: nonzero; opacity: 1; visibility: hidden;" vector-effect="non-scaling-stroke"  x="-540" y="-540" rx="0" ry="0" width="1080" height="1080" />
</g>
<g transform="matrix(1 0 0 1 540 540)" id="31c96ba8-9569-4603-9d35-46c88811433c"  >
</g>
<g transform="matrix(91.97 0 0 91.97 540 540)" id="15705af0-c4d9-4740-a7ce-eed2dc1dadf0"  >
<path style="stroke: rgb(0,0,0); stroke-width: 0; stroke-dasharray: none; stroke-linecap: butt; stroke-dashoffset: 0; stroke-linejoin: miter; stroke-miterlimit: 4; fill: rgb(190,49,68); fill-rule: nonzero; opacity: 1;" vector-effect="non-scaling-stroke"  transform=" translate(-12.5, -12)" d="M 7.5 11.25 C 7.08579 11.25 6.75 11.5858 6.75 12 C 6.75 12.4142 7.08579 12.75 7.5 12.75 L 7.5 11.25 Z M 12.5 12.75 C 12.9142 12.75 13.25 12.4142 13.25 12 C 13.25 11.5858 12.9142 11.25 12.5 11.25 L 12.5 12.75 Z M 12.5 11.25 C 12.0858 11.25 11.75 11.5858 11.75 12 C 11.75 12.4142 12.0858 12.75 12.5 12.75 L 12.5 11.25 Z M 17.5 12.75 C 17.9142 12.75 18.25 12.4142 18.25 12 C 18.25 11.5858 17.9142 11.25 17.5 11.25 L 17.5 12.75 Z M 13.25 12 C 13.25 11.5858 12.9142 11.25 12.5 11.25 C 12.0858 11.25 11.75 11.5858 11.75 12 L 13.25 12 Z M 11.75 17 C 11.75 17.4142 12.0858 17.75 12.5 17.75 C 12.9142 17.75 13.25 17.4142 13.25 17 L 11.75 17 Z M 11.75 12 C 11.75 12.4142 12.0858 12.75 12.5 12.75 C 12.9142 12.75 13.25 12.4142 13.25 12 L 11.75 12 Z M 13.25 7 C 13.25 6.58579 12.9142 6.25 12.5 6.25 C 12.0858 6.25 11.75 6.58579 11.75 7 L 13.25 7 Z M 7.5 12.75 L 12.5 12.75 L 12.5 11.25 L 7.5 11.25 L 7.5 12.75 Z M 12.5 12.75 L 17.5 12.75 L 17.5 11.25 L 12.5 11.25 L 12.5 12.75 Z M 12.5 12 L 11.75 12 C 11.75 12 11.75 12 11.75 12 C 11.75 12 11.75 12 11.75 12 C 11.75 12 11.75 12 11.75 12 C 11.75 12 11.75 12 11.75 12 C 11.75 12 11.75 12 11.75 12 C 11.75 12 11.75 12 11.75 12 C 11.75 12 11.75 12 11.75 12 C 11.75 12 11.75 12 11.75 12 C 11.75 12 11.75 12 11.75 12 C 11.75 12 11.75 12 11.75 12 C 11.75 12.0001 11.75 12.0001 11.75 12.0001 C 11.75 12.0001 11.75 12.0001 11.75 12.0001 C 11.75 12.0001 11.75 12.0001 11.75 12.0001 C 11.75 12.0001 11.75 12.0001 11.75 12.0001 C 11.75 12.0001 11.75 12.0001 11.75 12.0002 C 11.75 12.0002 11.75 12.0002 11.75 12.0002 C 11.75 12.0002 11.75 12.0002 11.75 12.0002 C 11.75 12.0002 11.75 12.0002 11.75 12.0003 C 11.75 12.0003 11.75 12.0003 11.75 12.0003 C 11.75 12.0003 11.75 12.0003 11.75 12.0003 C 11.75 12.0004 11.75 12.0004 11.75 12.0004 C 11.75 12.0004 11.75 12.0004 11.75 12.0005 C 11.75 12.0005 11.75 12.0005 11.75 12.0005 C 11.75 12.0005 11.75 12.0006 11.75 12.0006 C 11.75 12.0006 11.75 12.0006 11.75 12.0007 C 11.75 12.0007 11.75 12.0007 11.75 12.0007 C 11.75 12.0008 11.75 12.0008 11.75 12.0008 C 11.75 12.0008 11.75 12.0009 11.75 12.0009 C 11.75 12.0009 11.75 12.001 11.75 12.001 C 11.75 12.001 11.75 12.0011 11.75 12.0011 C 11.75 12.0011 11.75 12.0012 11.75 12.0012 C 11.75 12.0013 11.75 12.0013 11.75 12.0013 C 11.75 12.0014 11.75 12.0014 11.75 12.0015 C 11.75 12.0015 11.75 12.0016 11.75 12.0016 C 11.75 12.0016 11.75 12.0017 11.75 12.0017 C 11.75 12.0018 11.75 12.0018 11.75 12.0019 C 11.75 12.0019 11.75 12.002 11.75 12.002 C 11.75 12.0021 11.75 12.0022 11.75 12.0022 C 11.75 12.0023 11.75 12.0023 11.75 12.0024 C 11.75 12.0024 11.75 12.0025 11.75 12.0026 C 11.75 12.0026 11.75 12.0027 11.75 12.0028 C 11.75 12.0028 11.75 12.0029 11.75 12.003 C 11.75 12.003 11.75 12.0031 11.75 12.0032 C 11.75 12.0032 11.75 12.0033 11.75 12.0034 C 11.75 12.0035 11.75 12.0035 11.75 12.0036 C 11.75 12.0037 11.75 12.0038 11.75 12.0039 C 11.75 12.004 11.75 12.004 11.75 12.0041 C 11.75 12.0042 11.75 12.0043 11.75 12.0044 C 11.75 12.0045 11.75 12.0046 11.75 12.0047 C 11.75 12.0047 11.75 12.0048 11.75 12.0049 C 11.75 12.005 11.75 12.0051 11.75 12.0052 C 11.75 12.0053 11.75 12.0054 11.75 12.0055 C 11.75 12.0057 11.75 12.0058 11.75 12.0059 C 11.75 12.006 11.75 12.0061 11.75 12.0062 C 11.75 12.0063 11.75 12.0064 11.75 12.0065 C 11.75 12.0067 11.75 12.0068 11.75 12.0069 C 11.75 12.007 11.75 12.0071 11.75 12.0073 C 11.75 12.0074 11.75 12.0075 11.75 12.0077 C 11.75 12.0078 11.75 12.0079 11.75 12.008 C 11.75 12.0082 11.75 12.0083 11.75 12.0085 C 11.75 12.0086 11.75 12.0087 11.75 12.0089 C 11.75 12.009 11.75 12.0092 11.75 12.0093 C 11.75 12.0095 11.75 12.0096 11.75 12.0098 C 11.75 12.0099 11.75 12.0101 11.75 12.0102 C 11.75 12.0104 11.75 12.0105 11.75 12.0107 C 11.75 12.0109 11.75 12.011 11.75 12.0112 C 11.75 12.0114 11.75 12.0115 11.75 12.0117 C 11.75 12.0119 11.75 12.0121 11.75 12.0122 C 11.75 12.0124 11.75 12.0126 11.75 12.0128 C 11.75 12.013 11.75 12.0131 11.75 12.0133 C 11.75 12.0135 11.75 12.0137 11.75 12.0139 C 11.75 12.0141 11.75 12.0143 11.75 12.0145 C 11.75 12.0147 11.75 12.0149 11.75 12.0151 C 11.75 12.0153 11.75 12.0155 11.75 12.0157 C 11.75 12.0159 11.75 12.0161 11.75 12.0164 C 11.75 12.0166 11.75 12.0168 11.75 12.017 C 11.75 12.0172 11.75 12.0175 11.75 12.0177 C 11.75 12.0179 11.75 12.0181 11.75 12.0184 C 11.75 12.0186 11.75 12.0188 11.75 12.0191 C 11.75 12.0193 11.75 12.0196 11.75 12.0198 C 11.75 12.02 11.75 12.0203 11.75 12.0205 C 11.75 12.0208 11.75 12.021 11.75 12.0213 C 11.75 12.0216 11.75 12.0218 11.75 12.0221 C 11.75 12.0223 11.75 12.0226 11.75 12.0229 C 11.75 12.0231 11.75 12.0234 11.75 12.0237 C 11.75 12.024 11.75 12.0242 11.75 12.0245 C 11.75 12.0248 11.75 12.0251 11.75 12.0254 C 11.75 12.0257 11.75 12.026 11.75 12.0263 C 11.75 12.0266 11.75 12.0269 11.75 12.0272 C 11.75 12.0275 11.75 12.0278 11.75 12.0281 C 11.75 12.0284 11.75 12.0287 11.75 12.029 C 11.75 12.0293 11.75 12.0296 11.75 12.03 C 11.75 12.0303 11.75 12.0306 11.75 12.0309 C 11.75 12.0313 11.75 12.0316 11.75 12.0319 C 11.75 12.0323 11.75 12.0326 11.75 12.033 C 11.75 12.0333 11.75 12.0336 11.75 12.034 C 11.75 12.0344 11.75 12.0347 11.75 12.0351 C 11.75 12.0354 11.75 12.0358 11.75 12.0361 C 11.75 12.0365 11.75 12.0369 11.75 12.0373 C 11.75 12.0376 11.75 12.038 11.75 12.0384 C 11.75 12.0388 11.75 12.0391 11.75 12.0395 C 11.75 12.0399 11.75 12.0403 11.75 12.0407 C 11.75 12.0411 11.75 12.0415 11.75 12.0419 C 11.75 12.0423 11.75 12.0427 11.75 12.0431 C 11.75 12.0435 11.75 12.044 11.75 12.0444 C 11.75 12.0448 11.75 12.0452 11.75 12.0456 C 11.75 12.0461 11.75 12.0465 11.75 12.0469 C 11.75 12.0474 11.75 12.0478 11.75 12.0482 C 11.75 12.0487 11.75 12.0491 11.75 12.0496 C 11.75 12.05 11.75 12.0505 11.75 12.0509 C 11.75 12.0514 11.75 12.0519 11.75 12.0523 C 11.75 12.0528 11.75 12.0533 11.75 12.0538 C 11.75 12.0542 11.75 12.0547 11.75 12.0552 C 11.75 12.0557 11.75 12.0562 11.75 12.0567 C 11.75 12.0571 11.75 12.0576 11.75 12.0581 C 11.75 12.0586 11.75 12.0592 11.75 12.0597 C 11.75 12.0602 11.75 12.0607 11.75 12.0612 C 11.75 12.0617 11.75 12.0622 11.75 12.0628 C 11.75 12.0633 11.75 12.0638 11.75 12.0644 C 11.75 12.0649 11.75 12.0655 11.75 12.066 C 11.75 12.0665 11.75 12.0671 11.75 12.0676 C 11.75 12.0682 11.75 12.0688 11.75 12.0693 C 11.75 12.0699 11.75 12.0705 11.75 12.071 C 11.75 12.0716 11.75 12.0722 11.75 12.0728 C 11.75 12.0733 11.75 12.0739 11.75 12.0745 C 11.75 12.0751 11.75 12.0757 11.75 12.0763 C 11.75 12.0769 11.75 12.0775 11.75 12.0781 C 11.75 12.0787 11.75 12.0794 11.75 12.08 C 11.75 12.0806 11.75 12.0812 11.75 12.0818 C 11.75 12.0825 11.75 12.0831 11.75 12.0837 C 11.75 12.0844 11.75 12.085 11.75 12.0857 C 11.75 12.0863 11.75 12.087 11.75 12.0876 C 11.75 12.0883 11.75 12.089 11.75 12.0896 C 11.75 12.0903 11.75 12.091 11.75 12.0917 C 11.75 12.0923 11.75 12.093 11.75 12.0937 C 11.75 12.0944 11.75 12.0951 11.75 12.0958 C 11.75 12.0965 11.75 12.0972 11.75 12.0979 C 11.75 12.0986 11.75 12.0993 11.75 12.1 C 11.75 12.1008 11.75 12.1015 11.75 12.1022 C 11.75 12.103 11.75 12.1037 11.75 12.1044 C 11.75 12.1052 11.75 12.1059 11.75 12.1067 C 11.75 12.1074 11.75 12.1082 11.75 12.1089 C 11.75 12.1097 11.75 12.1105 11.75 12.1112 C 11.75 12.112 11.75 12.1128 11.75 12.1136 C 11.75 12.1144 11.75 12.1151 11.75 12.1159 C 11.75 12.1167 11.75 12.1175 11.75 12.1183 C 11.75 12.1191 11.75 12.12 11.75 12.1208 C 11.75 12.1216 11.75 12.1224 11.75 12.1232 C 11.75 12.1241 11.75 12.1249 11.75 12.1257 C 11.75 12.1266 11.75 12.1274 11.75 12.1283 C 11.75 12.1291 11.75 12.13 11.75 12.1308 C 11.75 12.1317 11.75 12.1326 11.75 12.1334 C 11.75 12.1343 11.75 12.1352 11.75 12.1361 C 11.75 12.1369 11.75 12.1378 11.75 12.1387 C 11.75 12.1396 11.75 12.1405 11.75 12.1414 C 11.75 12.1423 11.75 12.1432 11.75 12.1442 C 11.75 12.1451 11.75 12.146 11.75 12.1469 C 11.75 12.1479 11.75 12.1488 11.75 12.1497 C 11.75 12.1507 11.75 12.1516 11.75 12.1526 C 11.75 12.1535 11.75 12.1545 11.75 12.1555 C 11.75 12.1564 11.75 12.1574 11.75 12.1584 C 11.75 12.1594 11.75 12.1603 11.75 12.1613 C 11.75 12.1623 11.75 12.1633 11.75 12.1643 C 11.75 12.1653 11.75 12.1663 11.75 12.1673 C 11.75 12.1684 11.75 12.1694 11.75 12.1704 C 11.75 12.1714 11.75 12.1725 11.75 12.1735 C 11.75 12.1745 11.75 12.1756 11.75 12.1766 C 11.75 12.1777 11.75 12.1787 11.75 12.1798 C 11.75 12.1809 11.75 12.1819 11.75 12.183 C 11.75 12.1841 11.75 12.1852 11.75 12.1863 C 11.75 12.1874 11.75 12.1885 11.75 12.1896 C 11.75 12.1907 11.75 12.1918 11.75 12.1929 C 11.75 12.194 11.75 12.1951 11.75 12.1962 C 11.75 12.1974 11.75 12.1985 11.75 12.1997 C 11.75 12.2008 11.75 12.2019 11.75 12.2031 C 11.75 12.2042 11.75 12.2054 11.75 12.2066 C 11.75 12.2077 11.75 12.2089 11.75 12.2101 C 11.75 12.2113 11.75 12.2125 11.75 12.2137 C 11.75 12.2149 11.75 12.2161 11.75 12.2173 C 11.75 12.2185 11.75 12.2197 11.75 12.2209 C 11.75 12.2221 11.75 12.2233 11.75 12.2246 C 11.75 12.2258 11.75 12.2271 11.75 12.2283 C 11.75 12.2296 11.75 12.2308 11.75 12.2321 C 11.75 12.2333 11.75 12.2346 11.75 12.2359 C 11.75 12.2371 11.75 12.2384 11.75 12.2397 C 11.75 12.241 11.75 12.2423 11.75 12.2436 C 11.75 12.2449 11.75 12.2462 11.75 12.2475 C 11.75 12.2488 11.75 12.2502 11.75 12.2515 C 11.75 12.2528 11.75 12.2542 11.75 12.2555 C 11.75 12.2569 11.75 12.2582 11.75 12.2596 C 11.75 12.2609 11.75 12.2623 11.75 12.2637 C 11.75 12.265 11.75 12.2664 11.75 12.2678 C 11.75 12.2692 11.75 12.2706 11.75 12.272 C 11.75 12.2734 11.75 12.2748 11.75 12.2762 C 11.75 12.2776 11.75 12.2791 11.75 12.2805 C 11.75 12.2819 11.75 12.2834 11.75 12.2848 C 11.75 12.2863 11.75 12.2877 11.75 12.2892 C 11.75 12.2906 11.75 12.2921 11.75 12.2936 C 11.75 12.2951 11.75 12.2965 11.75 12.298 C 11.75 12.2995 11.75 12.301 11.75 12.3025 C 11.75 12.304 11.75 12.3055 11.75 12.3071 C 11.75 12.3086 11.75 12.3101 11.75 12.3116 C 11.75 12.3132 11.75 12.3147 11.75 12.3163 C 11.75 12.3178 11.75 12.3194 11.75 12.3209 C 11.75 12.3225 11.75 12.3241 11.75 12.3257 C 11.75 12.3272 11.75 12.3288 11.75 12.3304 C 11.75 12.332 11.75 12.3336 11.75 12.3352 C 11.75 12.3368 11.75 12.3385 11.75 12.3401 C 11.75 12.3417 11.75 12.3434 11.75 12.345 C 11.75 12.3466 11.75 12.3483 11.75 12.35 C 11.75 12.3516 11.75 12.3533 11.75 12.355 C 11.75 12.3566 11.75 12.3583 11.75 12.36 C 11.75 12.3617 11.75 12.3634 11.75 12.3651 C 11.75 12.3668 11.75 12.3685 11.75 12.3702 C 11.75 12.372 11.75 12.3737 11.75 12.3754 C 11.75 12.3772 11.75 12.3789 11.75 12.3807 C 11.75 12.3824 11.75 12.3842 11.75 12.3859 C 11.75 12.3877 11.75 12.3895 11.75 12.3913 C 11.75 12.3931 11.75 12.3949 11.75 12.3967 C 11.75 12.3985 11.75 12.4003 11.75 12.4021 C 11.75 12.4039 11.75 12.4057 11.75 12.4076 C 11.75 12.4094 11.75 12.4113 11.75 12.4131 C 11.75 12.415 11.75 12.4168 11.75 12.4187 C 11.75 12.4206 11.75 12.4224 11.75 12.4243 C 11.75 12.4262 11.75 12.4281 11.75 12.43 C 11.75 12.4319 11.75 12.4338 11.75 12.4358 C 11.75 12.4377 11.75 12.4396 11.75 12.4415 C 11.75 12.4435 11.75 12.4454 11.75 12.4474 C 11.75 12.4493 11.75 12.4513 11.75 12.4533 C 11.75 12.4552 11.75 12.4572 11.75 12.4592 C 11.75 12.4612 11.75 12.4632 11.75 12.4652 C 11.75 12.4672 11.75 12.4692 11.75 12.4712 C 11.75 12.4732 11.75 12.4753 11.75 12.4773 C 11.75 12.4794 11.75 12.4814 11.75 12.4835 C 11.75 12.4855 11.75 12.4876 11.75 12.4897 C 11.75 12.4917 11.75 12.4938 11.75 12.4959 C 11.75 12.498 11.75 12.5001 11.75 12.5022 C 11.75 12.5043 11.75 12.5064 11.75 12.5086 C 11.75 12.5107 11.75 12.5128 11.75 12.515 C 11.75 12.5171 11.75 12.5193 11.75 12.5214 C 11.75 12.5236 11.75 12.5258 11.75 12.528 C 11.75 12.5301 11.75 12.5323 11.75 12.5345 C 11.75 12.5367 11.75 12.5389 11.75 12.5412 C 11.75 12.5434 11.75 12.5456 11.75 12.5478 C 11.75 12.5501 11.75 12.5523 11.75 12.5546 C 11.75 12.5568 11.75 12.5591 11.75 12.5614 C 11.75 12.5636 11.75 12.5659 11.75 12.5682 C 11.75 12.5705 11.75 12.5728 11.75 12.5751 C 11.75 12.5774 11.75 12.5797 11.75 12.5821 C 11.75 12.5844 11.75 12.5867 11.75 12.5891 C 11.75 12.5914 11.75 12.5938 11.75 12.5962 C 11.75 12.5985 11.75 12.6009 11.75 12.6033 C 11.75 12.6057 11.75 12.6081 11.75 12.6105 C 11.75 12.6129 11.75 12.6153 11.75 12.6177 C 11.75 12.6201 11.75 12.6226 11.75 12.625 C 11.75 12.6274 11.75 12.6299 11.75 12.6324 C 11.75 12.6348 11.75 12.6373 11.75 12.6398 C 11.75 12.6422 11.75 12.6447 11.75 12.6472 C 11.75 12.6497 11.75 12.6522 11.75 12.6548 C 11.75 12.6573 11.75 12.6598 11.75 12.6623 C 11.75 12.6649 11.75 12.6674 11.75 12.67 C 11.75 12.6725 11.75 12.6751 11.75 12.6777 C 11.75 12.6803 11.75 12.6828 11.75 12.6854 C 11.75 12.688 11.75 12.6906 11.75 12.6933 C 11.75 12.6959 11.75 12.6985 11.75 12.7011 C 11.75 12.7038 11.75 12.7064 11.75 12.7091 C 11.75 12.7117 11.75 12.7144 11.75 12.7171 C 11.75 12.7198 11.75 12.7224 11.75 12.7251 C 11.75 12.7278 11.75 12.7305 11.75 12.7332 C 11.75 12.736 11.75 12.7387 11.75 12.7414 C 11.75 12.7442 11.75 12.7469 11.75 12.7497 C 11.75 12.7524 11.75 12.7552 11.75 12.758 C 11.75 12.7607 11.75 12.7635 11.75 12.7663 C 11.75 12.7691 11.75 12.7719 11.75 12.7747 C 11.75 12.7776 11.75 12.7804 11.75 12.7832 C 11.75 12.7861 11.75 12.7889 11.75 12.7918 C 11.75 12.7946 11.75 12.7975 11.75 12.8004 C 11.75 12.8033 11.75 12.8061 11.75 12.809 C 11.75 12.8119 11.75 12.8149 11.75 12.8178 C 11.75 12.8207 11.75 12.8236 11.75 12.8266 C 11.75 12.8295 11.75 12.8325 11.75 12.8354 C 11.75 12.8384 11.75 12.8414 11.75 12.8443 C 11.75 12.8473 11.75 12.8503 11.75 12.8533 C 11.75 12.8563 11.75 12.8593 11.75 12.8624 C 11.75 12.8654 11.75 12.8684 11.75 12.8715 C 11.75 12.8745 11.75 12.8776 11.75 12.8807 C 11.75 12.8837 11.75 12.8868 11.75 12.8899 C 11.75 12.893 11.75 12.8961 11.75 12.8992 C 11.75 12.9023 11.75 12.9054 11.75 12.9086 C 11.75 12.9117 11.75 12.9148 11.75 12.918 C 11.75 12.9211 11.75 12.9243 11.75 12.9275 C 11.75 12.9307 11.75 12.9339 11.75 12.9371 C 11.75 12.9402 11.75 12.9435 11.75 12.9467 C 11.75 12.9499 11.75 12.9531 11.75 12.9564 C 11.75 12.9596 11.75 12.9629 11.75 12.9661 C 11.75 12.9694 11.75 12.9727 11.75 12.976 C 11.75 12.9792 11.75 12.9825 11.75 12.9858 C 11.75 12.9892 11.75 12.9925 11.75 12.9958 C 11.75 12.9991 11.75 13.0025 11.75 13.0058 C 11.75 13.0092 11.75 13.0125 11.75 13.0159 C 11.75 13.0193 11.75 13.0227 11.75 13.0261 C 11.75 13.0295 11.75 13.0329 11.75 13.0363 C 11.75 13.0397 11.75 13.0432 11.75 13.0466 C 11.75 13.05 11.75 13.0535 11.75 13.057 C 11.75 13.0604 11.75 13.0639 11.75 13.0674 C 11.75 13.0709 11.75 13.0744 11.75 13.0779 C 11.75 13.0814 11.75 13.0849 11.75 13.0885 C 11.75 13.092 11.75 13.0955 11.75 13.0991 C 11.75 13.1027 11.75 13.1062 11.75 13.1098 C 11.75 13.1134 11.75 13.117 11.75 13.1206 C 11.75 13.1242 11.75 13.1278 11.75 13.1314 C 11.75 13.135 11.75 13.1387 11.75 13.1423 C 11.75 13.146 11.75 13.1496 11.75 13.1533 C 11.75 13.157 11.75 13.1607 11.75 13.1644 C 11.75 13.1681 11.75 13.1718 11.75 13.1755 C 11.75 13.1792 11.75 13.1829 11.75 13.1867 C 11.75 13.1904 11.75 13.1942 11.75 13.198 C 11.75 13.2017 11.75 13.2055 11.75 13.2093 C 11.75 13.2131 11.75 13.2169 11.75 13.2207 C 11.75 13.2245 11.75 13.2283 11.75 13.2322 C 11.75 13.236 11.75 13.2399 11.75 13.2437 C 11.75 13.2476 11.75 13.2515 11.75 13.2554 C 11.75 13.2592 11.75 13.2631 11.75 13.2671 C 11.75 13.271 11.75 13.2749 11.75 13.2788 C 11.75 13.2828 11.75 13.2867 11.75 13.2907 C 11.75 13.2946 11.75 13.2986 11.75 13.3026 C 11.75 13.3066 11.75 13.3106 11.75 13.3146 C 11.75 13.3186 11.75 13.3226 11.75 13.3266 C 11.75 13.3307 11.75 13.3347 11.75 13.3388 C 11.75 13.3428 11.75 13.3469 11.75 13.351 C 11.75 13.355 11.75 13.3591 11.75 13.3632 C 11.75 13.3674 11.75 13.3715 11.75 13.3756 C 11.75 13.3797 11.75 13.3839 11.75 13.388 C 11.75 13.3922 11.75 13.3964 11.75 13.4005 C 11.75 13.4047 11.75 13.4089 11.75 13.4131 C 11.75 13.4173 11.75 13.4215 11.75 13.4258 C 11.75 13.43 11.75 13.4342 11.75 13.4385 C 11.75 13.4428 11.75 13.447 11.75 13.4513 C 11.75 13.4556 11.75 13.4599 11.75 13.4642 C 11.75 13.4685 11.75 13.4728 11.75 13.4771 C 11.75 13.4815 11.75 13.4858 11.75 13.4902 C 11.75 13.4945 11.75 13.4989 11.75 13.5033 C 11.75 13.5077 11.75 13.5121 11.75 13.5165 C 11.75 13.5209 11.75 13.5253 11.75 13.5297 C 11.75 13.5342 11.75 13.5386 11.75 13.5431 C 11.75 13.5475 11.75 13.552 11.75 13.5565 C 11.75 13.561 11.75 13.5655 11.75 13.57 C 11.75 13.5745 11.75 13.579 11.75 13.5836 C 11.75 13.5881 11.75 13.5927 11.75 13.5972 C 11.75 13.6018 11.75 13.6064 11.75 13.6109 C 11.75 13.6155 11.75 13.6201 11.75 13.6248 C 11.75 13.6294 11.75 13.634 11.75 13.6386 C 11.75 13.6433 11.75 13.6479 11.75 13.6526 C 11.75 13.6573 11.75 13.662 11.75 13.6667 C 11.75 13.6713 11.75 13.6761 11.75 13.6808 C 11.75 13.6855 11.75 13.6902 11.75 13.695 C 11.75 13.6997 11.75 13.7045 11.75 13.7093 C 11.75 13.714 11.75 13.7188 11.75 13.7236 C 11.75 13.7284 11.75 13.7332 11.75 13.7381 C 11.75 13.7429 11.75 13.7477 11.75 13.7526 C 11.75 13.7575 11.75 13.7623 11.75 13.7672 C 11.75 13.7721 11.75 13.777 11.75 13.7819 C 11.75 13.7868 11.75 13.7917 11.75 13.7967 C 11.75 13.8016 11.75 13.8065 11.75 13.8115 C 11.75 13.8165 11.75 13.8214 11.75 13.8264 C 11.75 13.8314 11.75 13.8364 11.75 13.8414 C 11.75 13.8465 11.75 13.8515 11.75 13.8565 C 11.75 13.8616 11.75 13.8666 11.75 13.8717 C 11.75 13.8768 11.75 13.8819 11.75 13.887 C 11.75 13.8921 11.75 13.8972 11.75 13.9023 C 11.75 13.9074 11.75 13.9126 11.75 13.9177 C 11.75 13.9229 11.75 13.9281 11.75 13.9332 C 11.75 13.9384 11.75 13.9436 11.75 13.9488 C 11.75 13.954 11.75 13.9593 11.75 13.9645 C 11.75 13.9697 11.75 13.975 11.75 13.9803 C 11.75 13.9855 11.75 13.9908 11.75 13.9961 C 11.75 14.0014 11.75 14.0067 11.75 14.012 C 11.75 14.0174 11.75 14.0227 11.75 14.028 C 11.75 14.0334 11.75 14.0388 11.75 14.0441 C 11.75 14.0495 11.75 14.0549 11.75 14.0603 C 11.75 14.0657 11.75 14.0712 11.75 14.0766 C 11.75 14.082 11.75 14.0875 11.75 14.0929 C 11.75 14.0984 11.75 14.1039 11.75 14.1094 C 11.75 14.1149 11.75 14.1204 11.75 14.1259 C 11.75 14.1314 11.75 14.137 11.75 14.1425 C 11.75 14.1481 11.75 14.1536 11.75 14.1592 C 11.75 14.1648 11.75 14.1704 11.75 14.176 C 11.75 14.1816 11.75 14.1872 11.75 14.1929 C 11.75 14.1985 11.75 14.2041 11.75 14.2098 C 11.75 14.2155 11.75 14.2212 11.75 14.2268 C 11.75 14.2325 11.75 14.2383 11.75 14.244 C 11.75 14.2497 11.75 14.2554 11.75 14.2612 C 11.75 14.2669 11.75 14.2727 11.75 14.2785 C 11.75 14.2843 11.75 14.2901 11.75 14.2959 C 11.75 14.3017 11.75 14.3075 11.75 14.3134 C 11.75 14.3192 11.75 14.3251 11.75 14.3309 C 11.75 14.3368 11.75 14.3427 11.75 14.3486 C 11.75 14.3545 11.75 14.3604 11.75 14.3663 C 11.75 14.3723 11.75 14.3782 11.75 14.3842 C 11.75 14.3901 11.75 14.3961 11.75 14.4021 C 11.75 14.4081 11.75 14.4141 11.75 14.4201 C 11.75 14.4261 11.75 14.4322 11.75 14.4382 C 11.75 14.4443 11.75 14.4503 11.75 14.4564 C 11.75 14.4625 11.75 14.4686 11.75 14.4747 C 11.75 14.4808 11.75 14.487 11.75 14.4931 C 11.75 14.4992 11.75 14.5054 11.75 14.5116 C 11.75 14.5177 11.75 14.5239 11.75 14.5301 C 11.75 14.5363 11.75 14.5425 11.75 14.5488 C 11.75 14.555 11.75 14.5612 11.75 14.5675 C 11.75 14.5738 11.75 14.58 11.75 14.5863 C 11.75 14.5926 11.75 14.5989 11.75 14.6053 C 11.75 14.6116 11.75 14.6179 11.75 14.6243 C 11.75 14.6306 11.75 14.637 11.75 14.6434 C 11.75 14.6498 11.75 14.6562 11.75 14.6626 C 11.75 14.669 11.75 14.6754 11.75 14.6819 C 11.75 14.6883 11.75 14.6948 11.75 14.7013 C 11.75 14.7077 11.75 14.7142 11.75 14.7208 C 11.75 14.7273 11.75 14.7338 11.75 14.7403 C 11.75 14.7469 11.75 14.7534 11.75 14.76 C 11.75 14.7666 11.75 14.7732 11.75 14.7798 C 11.75 14.7864 11.75 14.793 11.75 14.7996 C 11.75 14.8062 11.75 14.8129 11.75 14.8196 C 11.75 14.8262 11.75 14.8329 11.75 14.8396 C 11.75 14.8463 11.75 14.853 11.75 14.8597 C 11.75 14.8665 11.75 14.8732 11.75 14.88 C 11.75 14.8867 11.75 14.8935 11.75 14.9003 C 11.75 14.9071 11.75 14.9139 11.75 14.9207 C 11.75 14.9276 11.75 14.9344 11.75 14.9413 C 11.75 14.9481 11.75 14.955 11.75 14.9619 C 11.75 14.9688 11.75 14.9757 11.75 14.9826 C 11.75 14.9895 11.75 14.9964 11.75 15.0034 C 11.75 15.0103 11.75 15.0173 11.75 15.0243 C 11.75 15.0313 11.75 15.0383 11.75 15.0453 C 11.75 15.0523 11.75 15.0593 11.75 15.0664 C 11.75 15.0734 11.75 15.0805 11.75 15.0876 C 11.75 15.0947 11.75 15.1018 11.75 15.1089 C 11.75 15.116 11.75 15.1231 11.75 15.1303 C 11.75 15.1374 11.75 15.1446 11.75 15.1518 C 11.75 15.1589 11.75 15.1661 11.75 15.1734 C 11.75 15.1806 11.75 15.1878 11.75 15.195 C 11.75 15.2023 11.75 15.2095 11.75 15.2168 C 11.75 15.2241 11.75 15.2314 11.75 15.2387 C 11.75 15.246 11.75 15.2533 11.75 15.2607 C 11.75 15.268 11.75 15.2754 11.75 15.2828 C 11.75 15.2901 11.75 15.2975 11.75 15.3049 C 11.75 15.3124 11.75 15.3198 11.75 15.3272 C 11.75 15.3347 11.75 15.3421 11.75 15.3496 C 11.75 15.3571 11.75 15.3646 11.75 15.3721 C 11.75 15.3796 11.75 15.3871 11.75 15.3947 C 11.75 15.4022 11.75 15.4098 11.75 15.4174 C 11.75 15.4249 11.75 15.4325 11.75 15.4401 C 11.75 15.4477 11.75 15.4554 11.75 15.463 C 11.75 15.4707 11.75 15.4783 11.75 15.486 C 11.75 15.4937 11.75 15.5014 11.75 15.5091 C 11.75 15.5168 11.75 15.5245 11.75 15.5323 C 11.75 15.54 11.75 15.5478 11.75 15.5556 C 11.75 15.5633 11.75 15.5711 11.75 15.579 C 11.75 15.5868 11.75 15.5946 11.75 15.6025 C 11.75 15.6103 11.75 15.6182 11.75 15.626 C 11.75 15.6339 11.75 15.6418 11.75 15.6497 C 11.75 15.6577 11.75 15.6656 11.75 15.6736 C 11.75 15.6815 11.75 15.6895 11.75 15.6975 C 11.75 15.7054 11.75 15.7134 11.75 15.7215 C 11.75 15.7295 11.75 15.7375 11.75 15.7456 C 11.75 15.7536 11.75 15.7617 11.75 15.7698 C 11.75 15.7779 11.75 15.786 11.75 15.7941 C 11.75 15.8022 11.75 15.8104 11.75 15.8185 C 11.75 15.8267 11.75 15.8349 11.75 15.8431 C 11.75 15.8513 11.75 15.8595 11.75 15.8677 C 11.75 15.8759 11.75 15.8842 11.75 15.8924 C 11.75 15.9007 11.75 15.909 11.75 15.9173 C 11.75 15.9256 11.75 15.9339 11.75 15.9422 C 11.75 15.9506 11.75 15.9589 11.75 15.9673 C 11.75 15.9757 11.75 15.9841 11.75 15.9925 C 11.75 16.0009 11.75 16.0093 11.75 16.0177 C 11.75 16.0262 11.75 16.0346 11.75 16.0431 C 11.75 16.0516 11.75 16.0601 11.75 16.0686 C 11.75 16.0771 11.75 16.0856 11.75 16.0942 C 11.75 16.1027 11.75 16.1113 11.75 16.1199 C 11.75 16.1285 11.75 16.1371 11.75 16.1457 C 11.75 16.1543 11.75 16.1629 11.75 16.1716 C 11.75 16.1802 11.75 16.1889 11.75 16.1976 C 11.75 16.2063 11.75 16.215 11.75 16.2237 C 11.75 16.2325 11.75 16.2412 11.75 16.25 C 11.75 16.2587 11.75 16.2675 11.75 16.2763 C 11.75 16.2851 11.75 16.2939 11.75 16.3028 C 11.75 16.3116 11.75 16.3204 11.75 16.3293 C 11.75 16.3382 11.75 16.3471 11.75 16.356 C 11.75 16.3649 11.75 16.3738 11.75 16.3828 C 11.75 16.3917 11.75 16.4007 11.75 16.4097 C 11.75 16.4186 11.75 16.4276 11.75 16.4367 C 11.75 16.4457 11.75 16.4547 11.75 16.4638 C 11.75 16.4728 11.75 16.4819 11.75 16.491 C 11.75 16.5001 11.75 16.5092 11.75 16.5183 C 11.75 16.5274 11.75 16.5366 11.75 16.5457 C 11.75 16.5549 11.75 16.5641 11.75 16.5733 C 11.75 16.5825 11.75 16.5917 11.75 16.601 C 11.75 16.6102 11.75 16.6195 11.75 16.6287 C 11.75 16.638 11.75 16.6473 11.75 16.6566 C 11.75 16.6659 11.75 16.6753 11.75 16.6846 C 11.75 16.694 11.75 16.7033 11.75 16.7127 C 11.75 16.7221 11.75 16.7315 11.75 16.7409 C 11.75 16.7504 11.75 16.7598 11.75 16.7693 C 11.75 16.7787 11.75 16.7882 11.75 16.7977 C 11.75 16.8072 11.75 16.8167 11.75 16.8263 C 11.75 16.8358 11.75 16.8454 11.75 16.8549 C 11.75 16.8645 11.75 16.8741 11.75 16.8837 C 11.75 16.8933 11.75 16.903 11.75 16.9126 C 11.75 16.9223 11.75 16.9319 11.75 16.9416 C 11.75 16.9513 11.75 16.961 11.75 16.9708 C 11.75 16.9805 11.75 16.9902 11.75 17 L 13.25 17 C 13.25 16.9902 13.25 16.9805 13.25 16.9708 C 13.25 16.961 13.25 16.9513 13.25 16.9416 C 13.25 16.9319 13.25 16.9223 13.25 16.9126 C 13.25 16.903 13.25 16.8933 13.25 16.8837 C 13.25 16.8741 13.25 16.8645 13.25 16.8549 C 13.25 16.8454 13.25 16.8358 13.25 16.8263 C 13.25 16.8167 13.25 16.8072 13.25 16.7977 C 13.25 16.7882 13.25 16.7787 13.25 16.7693 C 13.25 16.7598 13.25 16.7504 13.25 16.7409 C 13.25 16.7315 13.25 16.7221 13.25 16.7127 C 13.25 16.7033 13.25 16.694 13.25 16.6846 C 13.25 16.6753 13.25 16.6659 13.25 16.6566 C 13.25 16.6473 13.25 16.638 13.25 16.6287 C 13.25 16.6195 13.25 16.6102 13.25 16.601 C 13.25 16.5917 13.25 16.5825 13.25 16.5733 C 13.25 16.5641 13.25 16.5549 13.25 16.5457 C 13.25 16.5366 13.25 16.5274 13.25 16.5183 C 13.25 16.5092 13.25 16.5001 13.25 16.491 C 13.25 16.4819 13.25 16.4728 13.25 16.4638 C 13.25 16.4547 13.25 16.4457 13.25 16.4367 C 13.25 16.4276 13.25 16.4186 13.25 16.4097 C 13.25 16.4007 13.25 16.3917 13.25 16.3828 C 13.25 16.3738 13.25 16.3649 13.25 16.356 C 13.25 16.3471 13.25 16.3382 13.25 16.3293 C 13.25 16.3204 13.25 16.3116 13.25 16.3028 C 13.25 16.2939 13.25 16.2851 13.25 16.2763 C 13.25 16.2675 13.25 16.2587 13.25 16.25 C 13.25 16.2412 13.25 16.2325 13.25 16.2237 C 13.25 16.215 13.25 16.2063 13.25 16.1976 C 13.25 16.1889 13.25 16.1802 13.25 16.1716 C 13.25 16.1629 13.25 16.1543 13.25 16.1457 C 13.25 16.1371 13.25 16.1285 13.25 16.1199 C 13.25 16.1113 13.25 16.1027 13.25 16.0942 C 13.25 16.0856 13.25 16.0771 13.25 16.0686 C 13.25 16.0601 13.25 16.0516 13.25 16.0431 C 13.25 16.0346 13.25 16.0262 13.25 16.0177 C 13.25 16.0093 13.25 16.0009 13.25 15.9925 C 13.25 15.9841 13.25 15.9757 13.25 15.9673 C 13.25 15.9589 13.25 15.9506 13.25 15.9422 C 13.25 15.9339 13.25 15.9256 13.25 15.9173 C 13.25 15.909 13.25 15.9007 13.25 15.8924 C 13.25 15.8842 13.25 15.8759 13.25 15.8677 C 13.25 15.8595 13.25 15.8513 13.25 15.8431 C 13.25 15.8349 13.25 15.8267 13.25 15.8185 C 13.25 15.8104 13.25 15.8022 13.25 15.7941 C 13.25 15.786 13.25 15.7779 13.25 15.7698 C 13.25 15.7617 13.25 15.7536 13.25 15.7456 C 13.25 15.7375 13.25 15.7295 13.25 15.7215 C 13.25 15.7134 13.25 15.7054 13.25 15.6975 C 13.25 15.6895 13.25 15.6815 13.25 15.6736 C 13.25 15.6656 13.25 15.6577 13.25 15.6497 C 13.25 15.6418 13.25 15.6339 13.25 15.626 C 13.25 15.6182 13.25 15.6103 13.25 15.6025 C 13.25 15.5946 13.25 15.5868 13.25 15.579 C 13.25 15.5711 13.25 15.5633 13.25 15.5556 C 13.25 15.5478 13.25 15.54 13.25 15.5323 C 13.25 15.5245 13.25 15.5168 13.25 15.5091 C 13.25 15.5014 13.25 15.4937 13.25 15.486 C 13.25 15.4783 13.25 15.4707 13.25 15.463 C 13.25 15.4554 13.25 15.4477 13.25 15.4401 C 13.25 15.4325 13.25 15.4249 13.25 15.4174 C 13.25 15.4098 13.25 15.4022 13.25 15.3947 C 13.25 15.3871 13.25 15.3796 13.25 15.3721 C 13.25 15.3646 13.25 15.3571 13.25 15.3496 C 13.25 15.3421 13.25 15.3347 13.25 15.3272 C 13.25 15.3198 13.25 15.3124 13.25 15.3049 C 13.25 15.2975 13.25 15.2901 13.25 15.2828 C 13.25 15.2754 13.25 15.268 13.25 15.2607 C 13.25 15.2533 13.25 15.246 13.25 15.2387 C 13.25 15.2314 13.25 15.2241 13.25 15.2168 C 13.25 15.2095 13.25 15.2023 13.25 15.195 C 13.25 15.1878 13.25 15.1806 13.25 15.1734 C 13.25 15.1661 13.25 15.1589 13.25 15.1518 C 13.25 15.1446 13.25 15.1374 13.25 15.1303 C 13.25 15.1231 13.25 15.116 13.25 15.1089 C 13.25 15.1018 13.25 15.0947 13.25 15.0876 C 13.25 15.0805 13.25 15.0734 13.25 15.0664 C 13.25 15.0593 13.25 15.0523 13.25 15.0453 C 13.25 15.0383 13.25 15.0313 13.25 15.0243 C 13.25 15.0173 13.25 15.0103 13.25 15.0034 C 13.25 14.9964 13.25 14.9895 13.25 14.9826 C 13.25 14.9757 13.25 14.9688 13.25 14.9619 C 13.25 14.955 13.25 14.9481 13.25 14.9413 C 13.25 14.9344 13.25 14.9276 13.25 14.9207 C 13.25 14.9139 13.25 14.9071 13.25 14.9003 C 13.25 14.8935 13.25 14.8867 13.25 14.88 C 13.25 14.8732 13.25 14.8665 13.25 14.8597 C 13.25 14.853 13.25 14.8463 13.25 14.8396 C 13.25 14.8329 13.25 14.8262 13.25 14.8196 C 13.25 14.8129 13.25 14.8062 13.25 14.7996 C 13.25 14.793 13.25 14.7864 13.25 14.7798 C 13.25 14.7732 13.25 14.7666 13.25 14.76 C 13.25 14.7534 13.25 14.7469 13.25 14.7403 C 13.25 14.7338 13.25 14.7273 13.25 14.7208 C 13.25 14.7142 13.25 14.7077 13.25 14.7013 C 13.25 14.6948 13.25 14.6883 13.25 14.6819 C 13.25 14.6754 13.25 14.669 13.25 14.6626 C 13.25 14.6562 13.25 14.6498 13.25 14.6434 C 13.25 14.637 13.25 14.6306 13.25 14.6243 C 13.25 14.6179 13.25 14.6116 13.25 14.6053 C 13.25 14.5989 13.25 14.5926 13.25 14.5863 C 13.25 14.58 13.25 14.5738 13.25 14.5675 C 13.25 14.5612 13.25 14.555 13.25 14.5488 C 13.25 14.5425 13.25 14.5363 13.25 14.5301 C 13.25 14.5239 13.25 14.5177 13.25 14.5116 C 13.25 14.5054 13.25 14.4992 13.25 14.4931 C 13.25 14.487 13.25 14.4808 13.25 14.4747 C 13.25 14.4686 13.25 14.4625 13.25 14.4564 C 13.25 14.4503 13.25 14.4443 13.25 14.4382 C 13.25 14.4322 13.25 14.4261 13.25 14.4201 C 13.25 14.4141 13.25 14.4081 13.25 14.4021 C 13.25 14.3961 13.25 14.3901 13.25 14.3842 C 13.25 14.3782 13.25 14.3723 13.25 14.3663 C 13.25 14.3604 13.25 14.3545 13.25 14.3486 C 13.25 14.3427 13.25 14.3368 13.25 14.3309 C 13.25 14.3251 13.25 14.3192 13.25 14.3134 C 13.25 14.3075 13.25 14.3017 13.25 14.2959 C 13.25 14.2901 13.25 14.2843 13.25 14.2785 C 13.25 14.2727 13.25 14.2669 13.25 14.2612 C 13.25 14.2554 13.25 14.2497 13.25 14.244 C 13.25 14.2383 13.25 14.2325 13.25 14.2268 C 13.25 14.2212 13.25 14.2155 13.25 14.2098 C 13.25 14.2041 13.25 14.1985 13.25 14.1929 C 13.25 14.1872 13.25 14.1816 13.25 14.176 C 13.25 14.1704 13.25 14.1648 13.25 14.1592 C 13.25 14.1536 13.25 14.1481 13.25 14.1425 C 13.25 14.137 13.25 14.1314 13.25 14.1259 C 13.25 14.1204 13.25 14.1149 13.25 14.1094 C 13.25 14.1039 13.25 14.0984 13.25 14.0929 C 13.25 14.0875 13.25 14.082 13.25 14.0766 C 13.25 14.0712 13.25 14.0657 13.25 14.0603 C 13.25 14.0549 13.25 14.0495 13.25 14.0441 C 13.25 14.0388 13.25 14.0334 13.25 14.028 C 13.25 14.0227 13.25 14.0174 13.25 14.012 C 13.25 14.0067 13.25 14.0014 13.25 13.9961 C 13.25 13.9908 13.25 13.9855 13.25 13.9803 C 13.25 13.975 13.25 13.9697 13.25 13.9645 C 13.25 13.9593 13.25 13.954 13.25 13.9488 C 13.25 13.9436 13.25 13.9384 13.25 13.9332 C 13.25 13.9281 13.25 13.9229 13.25 13.9177 C 13.25 13.9126 13.25 13.9074 13.25 13.9023 C 13.25 13.8972 13.25 13.8921 13.25 13.887 C 13.25 13.8819 13.25 13.8768 13.25 13.8717 C 13.25 13.8666 13.25 13.8616 13.25 13.8565 C 13.25 13.8515 13.25 13.8465 13.25 13.8414 C 13.25 13.8364 13.25 13.8314 13.25 13.8264 C 13.25 13.8214 13.25 13.8165 13.25 13.8115 C 13.25 13.8065 13.25 13.8016 13.25 13.7967 C 13.25 13.7917 13.25 13.7868 13.25 13.7819 C 13.25 13.777 13.25 13.7721 13.25 13.7672 C 13.25 13.7623 13.25 13.7575 13.25 13.7526 C 13.25 13.7477 13.25 13.7429 13.25 13.7381 C 13.25 13.7332 13.25 13.7284 13.25 13.7236 C 13.25 13.7188 13.25 13.714 13.25 13.7093 C 13.25 13.7045 13.25 13.6997 13.25 13.695 C 13.25 13.6902 13.25 13.6855 13.25 13.6808 C 13.25 13.6761 13.25 13.6713 13.25 13.6667 C 13.25 13.662 13.25 13.6573 13.25 13.6526 C 13.25 13.6479 13.25 13.6433 13.25 13.6386 C 13.25 13.634 13.25 13.6294 13.25 13.6248 C 13.25 13.6201 13.25 13.6155 13.25 13.6109 C 13.25 13.6064 13.25 13.6018 13.25 13.5972 C 13.25 13.5927 13.25 13.5881 13.25 13.5836 C 13.25 13.579 13.25 13.5745 13.25 13.57 C 13.25 13.5655 13.25 13.561 13.25 13.5565 C 13.25 13.552 13.25 13.5475 13.25 13.5431 C 13.25 13.5386 13.25 13.5342 13.25 13.5297 C 13.25 13.5253 13.25 13.5209 13.25 13.5165 C 13.25 13.5121 13.25 13.5077 13.25 13.5033 C 13.25 13.4989 13.25 13.4945 13.25 13.4902 C 13.25 13.4858 13.25 13.4815 13.25 13.4771 C 13.25 13.4728 13.25 13.4685 13.25 13.4642 C 13.25 13.4599 13.25 13.4556 13.25 13.4513 C 13.25 13.447 13.25 13.4428 13.25 13.4385 C 13.25 13.4342 13.25 13.43 13.25 13.4258 C 13.25 13.4215 13.25 13.4173 13.25 13.4131 C 13.25 13.4089 13.25 13.4047 13.25 13.4005 C 13.25 13.3964 13.25 13.3922 13.25 13.388 C 13.25 13.3839 13.25 13.3797 13.25 13.3756 C 13.25 13.3715 13.25 13.3674 13.25 13.3632 C 13.25 13.3591 13.25 13.355 13.25 13.351 C 13.25 13.3469 13.25 13.3428 13.25 13.3388 C 13.25 13.3347 13.25 13.3307 13.25 13.3266 C 13.25 13.3226 13.25 13.3186 13.25 13.3146 C 13.25 13.3106 13.25 13.3066 13.25 13.3026 C 13.25 13.2986 13.25 13.2946 13.25 13.2907 C 13.25 13.2867 13.25 13.2828 13.25 13.2788 C 13.25 13.2749 13.25 13.271 13.25 13.2671 C 13.25 13.2631 13.25 13.2592 13.25 13.2554 C 13.25 13.2515 13.25 13.2476 13.25 13.2437 C 13.25 13.2399 13.25 13.236 13.25 13.2322 C 13.25 13.2283 13.25 13.2245 13.25 13.2207 C 13.25 13.2169 13.25 13.2131 13.25 13.2093 C 13.25 13.2055 13.25 13.2017 13.25 13.198 C 13.25 13.1942 13.25 13.1904 13.25 13.1867 C 13.25 13.1829 13.25 13.1792 13.25 13.1755 C 13.25 13.1718 13.25 13.1681 13.25 13.1644 C 13.25 13.1607 13.25 13.157 13.25 13.1533 C 13.25 13.1496 13.25 13.146 13.25 13.1423 C 13.25 13.1387 13.25 13.135 13.25 13.1314 C 13.25 13.1278 13.25 13.1242 13.25 13.1206 C 13.25 13.117 13.25 13.1134 13.25 13.1098 C 13.25 13.1062 13.25 13.1027 13.25 13.0991 C 13.25 13.0955 13.25 13.092 13.25 13.0885 C 13.25 13.0849 13.25 13.0814 13.25 13.0779 C 13.25 13.0744 13.25 13.0709 13.25 13.0674 C 13.25 13.0639 13.25 13.0604 13.25 13.057 C 13.25 13.0535 13.25 13.05 13.25 13.0466 C 13.25 13.0432 13.25 13.0397 13.25 13.0363 C 13.25 13.0329 13.25 13.0295 13.25 13.0261 C 13.25 13.0227 13.25 13.0193 13.25 13.0159 C 13.25 13.0125 13.25 13.0092 13.25 13.0058 C 13.25 13.0025 13.25 12.9991 13.25 12.9958 C 13.25 12.9925 13.25 12.9892 13.25 12.9858 C 13.25 12.9825 13.25 12.9792 13.25 12.976 C 13.25 12.9727 13.25 12.9694 13.25 12.9661 C 13.25 12.9629 13.25 12.9596 13.25 12.9564 C 13.25 12.9531 13.25 12.9499 13.25 12.9467 C 13.25 12.9435 13.25 12.9402 13.25 12.9371 C 13.25 12.9339 13.25 12.9307 13.25 12.9275 C 13.25 12.9243 13.25 12.9211 13.25 12.918 C 13.25 12.9148 13.25 12.9117 13.25 12.9086 C 13.25 12.9054 13.25 12.9023 13.25 12.8992 C 13.25 12.8961 13.25 12.893 13.25 12.8899 C 13.25 12.8868 13.25 12.8837 13.25 12.8807 C 13.25 12.8776 13.25 12.8745 13.25 12.8715 C 13.25 12.8684 13.25 12.8654 13.25 12.8624 C 13.25 12.8593 13.25 12.8563 13.25 12.8533 C 13.25 12.8503 13.25 12.8473 13.25 12.8443 C 13.25 12.8414 13.25 12.8384 13.25 12.8354 C 13.25 12.8325 13.25 12.8295 13.25 12.8266 C 13.25 12.8236 13.25 12.8207 13.25 12.8178 C 13.25 12.8149 13.25 12.8119 13.25 12.809 C 13.25 12.8061 13.25 12.8033 13.25 12.8004 C 13.25 12.7975 13.25 12.7946 13.25 12.7918 C 13.25 12.7889 13.25 12.7861 13.25 12.7832 C 13.25 12.7804 13.25 12.7776 13.25 12.7747 C 13.25 12.7719 13.25 12.7691 13.25 12.7663 C 13.25 12.7635 13.25 12.7607 13.25 12.758 C 13.25 12.7552 13.25 12.7524 13.25 12.7497 C 13.25 12.7469 13.25 12.7442 13.25 12.7414 C 13.25 12.7387 13.25 12.736 13.25 12.7332 C 13.25 12.7305 13.25 12.7278 13.25 12.7251 C 13.25 12.7224 13.25 12.7198 13.25 12.7171 C 13.25 12.7144 13.25 12.7117 13.25 12.7091 C 13.25 12.7064 13.25 12.7038 13.25 12.7011 C 13.25 12.6985 13.25 12.6959 13.25 12.6933 C 13.25 12.6906 13.25 12.688 13.25 12.6854 C 13.25 12.6828 13.25 12.6803 13.25 12.6777 C 13.25 12.6751 13.25 12.6725 13.25 12.67 C 13.25 12.6674 13.25 12.6649 13.25 12.6623 C 13.25 12.6598 13.25 12.6573 13.25 12.6548 C 13.25 12.6522 13.25 12.6497 13.25 12.6472 C 13.25 12.6447 13.25 12.6422 13.25 12.6398 C 13.25 12.6373 13.25 12.6348 13.25 12.6324 C 13.25 12.6299 13.25 12.6274 13.25 12.625 C 13.25 12.6226 13.25 12.6201 13.25 12.6177 C 13.25 12.6153 13.25 12.6129 13.25 12.6105 C 13.25 12.6081 13.25 12.6057 13.25 12.6033 C 13.25 12.6009 13.25 12.5985 13.25 12.5962 C 13.25 12.5938 13.25 12.5914 13.25 12.5891 C 13.25 12.5867 13.25 12.5844 13.25 12.5821 C 13.25 12.5797 13.25 12.5774 13.25 12.5751 C 13.25 12.5728 13.25 12.5705 13.25 12.5682 C 13.25 12.5659 13.25 12.5636 13.25 12.5614 C 13.25 12.5591 13.25 12.5568 13.25 12.5546 C 13.25 12.5523 13.25 12.5501 13.25 12.5478 C 13.25 12.5456 13.25 12.5434 13.25 12.5412 C 13.25 12.5389 13.25 12.5367 13.25 12.5345 C 13.25 12.5323 13.25 12.5301 13.25 12.528 C 13.25 12.5258 13.25 12.5236 13.25 12.5214 C 13.25 12.5193 13.25 12.5171 13.25 12.515 C 13.25 12.5128 13.25 12.5107 13.25 12.5086 C 13.25 12.5064 13.25 12.5043 13.25 12.5022 C 13.25 12.5001 13.25 12.498 13.25 12.4959 C 13.25 12.4938 13.25 12.4917 13.25 12.4897 C 13.25 12.4876 13.25 12.4855 13.25 12.4835 C 13.25 12.4814 13.25 12.4794 13.25 12.4773 C 13.25 12.4753 13.25 12.4732 13.25 12.4712 C 13.25 12.4692 13.25 12.4672 13.25 12.4652 C 13.25 12.4632 13.25 12.4612 13.25 12.4592 C 13.25 12.4572 13.25 12.4552 13.25 12.4533 C 13.25 12.4513 13.25 12.4493 13.25 12.4474 C 13.25 12.4454 13.25 12.4435 13.25 12.4415 C 13.25 12.4396 13.25 12.4377 13.25 12.4358 C 13.25 12.4338 13.25 12.4319 13.25 12.43 C 13.25 12.4281 13.25 12.4262 13.25 12.4243 C 13.25 12.4224 13.25 12.4206 13.25 12.4187 C 13.25 12.4168 13.25 12.415 13.25 12.4131 C 13.25 12.4113 13.25 12.4094 13.25 12.4076 C 13.25 12.4057 13.25 12.4039 13.25 12.4021 C 13.25 12.4003 13.25 12.3985 13.25 12.3967 C 13.25 12.3949 13.25 12.3931 13.25 12.3913 C 13.25 12.3895 13.25 12.3877 13.25 12.3859 C 13.25 12.3842 13.25 12.3824 13.25 12.3807 C 13.25 12.3789 13.25 12.3772 13.25 12.3754 C 13.25 12.3737 13.25 12.372 13.25 12.3702 C 13.25 12.3685 13.25 12.3668 13.25 12.3651 C 13.25 12.3634 13.25 12.3617 13.25 12.36 C 13.25 12.3583 13.25 12.3566 13.25 12.355 C 13.25 12.3533 13.25 12.3516 13.25 12.35 C 13.25 12.3483 13.25 12.3466 13.25 12.345 C 13.25 12.3434 13.25 12.3417 13.25 12.3401 C 13.25 12.3385 13.25 12.3368 13.25 12.3352 C 13.25 12.3336 13.25 12.332 13.25 12.3304 C 13.25 12.3288 13.25 12.3272 13.25 12.3257 C 13.25 12.3241 13.25 12.3225 13.25 12.3209 C 13.25 12.3194 13.25 12.3178 13.25 12.3163 C 13.25 12.3147 13.25 12.3132 13.25 12.3116 C 13.25 12.3101 13.25 12.3086 13.25 12.3071 C 13.25 12.3055 13.25 12.304 13.25 12.3025 C 13.25 12.301 13.25 12.2995 13.25 12.298 C 13.25 12.2965 13.25 12.2951 13.25 12.2936 C 13.25 12.2921 13.25 12.2906 13.25 12.2892 C 13.25 12.2877 13.25 12.2863 13.25 12.2848 C 13.25 12.2834 13.25 12.2819 13.25 12.2805 C 13.25 12.2791 13.25 12.2776 13.25 12.2762 C 13.25 12.2748 13.25 12.2734 13.25 12.272 C 13.25 12.2706 13.25 12.2692 13.25 12.2678 C 13.25 12.2664 13.25 12.265 13.25 12.2637 C 13.25 12.2623 13.25 12.2609 13.25 12.2596 C 13.25 12.2582 13.25 12.2569 13.25 12.2555 C 13.25 12.2542 13.25 12.2528 13.25 12.2515 C 13.25 12.2502 13.25 12.2488 13.25 12.2475 C 13.25 12.2462 13.25 12.2449 13.25 12.2436 C 13.25 12.2423 13.25 12.241 13.25 12.2397 C 13.25 12.2384 13.25 12.2371 13.25 12.2359 C 13.25 12.2346 13.25 12.2333 13.25 12.2321 C 13.25 12.2308 13.25 12.2296 13.25 12.2283 C 13.25 12.2271 13.25 12.2258 13.25 12.2246 C 13.25 12.2233 13.25 12.2221 13.25 12.2209 C 13.25 12.2197 13.25 12.2185 13.25 12.2173 C 13.25 12.2161 13.25 12.2149 13.25 12.2137 C 13.25 12.2125 13.25 12.2113 13.25 12.2101 C 13.25 12.2089 13.25 12.2077 13.25 12.2066 C 13.25 12.2054 13.25 12.2042 13.25 12.2031 C 13.25 12.2019 13.25 12.2008 13.25 12.1997 C 13.25 12.1985 13.25 12.1974 13.25 12.1962 C 13.25 12.1951 13.25 12.194 13.25 12.1929 C 13.25 12.1918 13.25 12.1907 13.25 12.1896 C 13.25 12.1885 13.25 12.1874 13.25 12.1863 C 13.25 12.1852 13.25 12.1841 13.25 12.183 C 13.25 12.1819 13.25 12.1809 13.25 12.1798 C 13.25 12.1787 13.25 12.1777 13.25 12.1766 C 13.25 12.1756 13.25 12.1745 13.25 12.1735 C 13.25 12.1725 13.25 12.1714 13.25 12.1704 C 13.25 12.1694 13.25 12.1684 13.25 12.1673 C 13.25 12.1663 13.25 12.1653 13.25 12.1643 C 13.25 12.1633 13.25 12.1623 13.25 12.1613 C 13.25 12.1603 13.25 12.1594 13.25 12.1584 C 13.25 12.1574 13.25 12.1564 13.25 12.1555 C 13.25 12.1545 13.25 12.1535 13.25 12.1526 C 13.25 12.1516 13.25 12.1507 13.25 12.1497 C 13.25 12.1488 13.25 12.1479 13.25 12.1469 C 13.25 12.146 13.25 12.1451 13.25 12.1442 C 13.25 12.1432 13.25 12.1423 13.25 12.1414 C 13.25 12.1405 13.25 12.1396 13.25 12.1387 C 13.25 12.1378 13.25 12.1369 13.25 12.1361 C 13.25 12.1352 13.25 12.1343 13.25 12.1334 C 13.25 12.1326 13.25 12.1317 13.25 12.1308 C 13.25 12.13 13.25 12.1291 13.25 12.1283 C 13.25 12.1274 13.25 12.1266 13.25 12.1257 C 13.25 12.1249 13.25 12.1241 13.25 12.1232 C 13.25 12.1224 13.25 12.1216 13.25 12.1208 C 13.25 12.12 13.25 12.1191 13.25 12.1183 C 13.25 12.1175 13.25 12.1167 13.25 12.1159 C 13.25 12.1151 13.25 12.1144 13.25 12.1136 C 13.25 12.1128 13.25 12.112 13.25 12.1112 C 13.25 12.1105 13.25 12.1097 13.25 12.1089 C 13.25 12.1082 13.25 12.1074 13.25 12.1067 C 13.25 12.1059 13.25 12.1052 13.25 12.1044 C 13.25 12.1037 13.25 12.103 13.25 12.1022 C 13.25 12.1015 13.25 12.1008 13.25 12.1 C 13.25 12.0993 13.25 12.0986 13.25 12.0979 C 13.25 12.0972 13.25 12.0965 13.25 12.0958 C 13.25 12.0951 13.25 12.0944 13.25 12.0937 C 13.25 12.093 13.25 12.0923 13.25 12.0917 C 13.25 12.091 13.25 12.0903 13.25 12.0896 C 13.25 12.089 13.25 12.0883 13.25 12.0876 C 13.25 12.087 13.25 12.0863 13.25 12.0857 C 13.25 12.085 13.25 12.0844 13.25 12.0837 C 13.25 12.0831 13.25 12.0825 13.25 12.0818 C 13.25 12.0812 13.25 12.0806 13.25 12.08 C 13.25 12.0794 13.25 12.0787 13.25 12.0781 C 13.25 12.0775 13.25 12.0769 13.25 12.0763 C 13.25 12.0757 13.25 12.0751 13.25 12.0745 C 13.25 12.0739 13.25 12.0733 13.25 12.0728 C 13.25 12.0722 13.25 12.0716 13.25 12.071 C 13.25 12.0705 13.25 12.0699 13.25 12.0693 C 13.25 12.0688 13.25 12.0682 13.25 12.0676 C 13.25 12.0671 13.25 12.0665 13.25 12.066 C 13.25 12.0655 13.25 12.0649 13.25 12.0644 C 13.25 12.0638 13.25 12.0633 13.25 12.0628 C 13.25 12.0622 13.25 12.0617 13.25 12.0612 C 13.25 12.0607 13.25 12.0602 13.25 12.0597 C 13.25 12.0592 13.25 12.0586 13.25 12.0581 C 13.25 12.0576 13.25 12.0571 13.25 12.0567 C 13.25 12.0562 13.25 12.0557 13.25 12.0552 C 13.25 12.0547 13.25 12.0542 13.25 12.0538 C 13.25 12.0533 13.25 12.0528 13.25 12.0523 C 13.25 12.0519 13.25 12.0514 13.25 12.0509 C 13.25 12.0505 13.25 12.05 13.25 12.0496 C 13.25 12.0491 13.25 12.0487 13.25 12.0482 C 13.25 12.0478 13.25 12.0474 13.25 12.0469 C 13.25 12.0465 13.25 12.0461 13.25 12.0456 C 13.25 12.0452 13.25 12.0448 13.25 12.0444 C 13.25 12.044 13.25 12.0435 13.25 12.0431 C 13.25 12.0427 13.25 12.0423 13.25 12.0419 C 13.25 12.0415 13.25 12.0411 13.25 12.0407 C 13.25 12.0403 13.25 12.0399 13.25 12.0395 C 13.25 12.0391 13.25 12.0388 13.25 12.0384 C 13.25 12.038 13.25 12.0376 13.25 12.0373 C 13.25 12.0369 13.25 12.0365 13.25 12.0361 C 13.25 12.0358 13.25 12.0354 13.25 12.0351 C 13.25 12.0347 13.25 12.0344 13.25 12.034 C 13.25 12.0336 13.25 12.0333 13.25 12.033 C 13.25 12.0326 13.25 12.0323 13.25 12.0319 C 13.25 12.0316 13.25 12.0313 13.25 12.0309 C 13.25 12.0306 13.25 12.0303 13.25 12.03 C 13.25 12.0296 13.25 12.0293 13.25 12.029 C 13.25 12.0287 13.25 12.0284 13.25 12.0281 C 13.25 12.0278 13.25 12.0275 13.25 12.0272 C 13.25 12.0269 13.25 12.0266 13.25 12.0263 C 13.25 12.026 13.25 12.0257 13.25 12.0254 C 13.25 12.0251 13.25 12.0248 13.25 12.0245 C 13.25 12.0242 13.25 12.024 13.25 12.0237 C 13.25 12.0234 13.25 12.0231 13.25 12.0229 C 13.25 12.0226 13.25 12.0223 13.25 12.0221 C 13.25 12.0218 13.25 12.0216 13.25 12.0213 C 13.25 12.021 13.25 12.0208 13.25 12.0205 C 13.25 12.0203 13.25 12.02 13.25 12.0198 C 13.25 12.0196 13.25 12.0193 13.25 12.0191 C 13.25 12.0188 13.25 12.0186 13.25 12.0184 C 13.25 12.0181 13.25 12.0179 13.25 12.0177 C 13.25 12.0175 13.25 12.0172 13.25 12.017 C 13.25 12.0168 13.25 12.0166 13.25 12.0164 C 13.25 12.0161 13.25 12.0159 13.25 12.0157 C 13.25 12.0155 13.25 12.0153 13.25 12.0151 C 13.25 12.0149 13.25 12.0147 13.25 12.0145 C 13.25 12.0143 13.25 12.0141 13.25 12.0139 C 13.25 12.0137 13.25 12.0135 13.25 12.0133 C 13.25 12.0131 13.25 12.013 13.25 12.0128 C 13.25 12.0126 13.25 12.0124 13.25 12.0122 C 13.25 12.0121 13.25 12.0119 13.25 12.0117 C 13.25 12.0115 13.25 12.0114 13.25 12.0112 C 13.25 12.011 13.25 12.0109 13.25 12.0107 C 13.25 12.0105 13.25 12.0104 13.25 12.0102 C 13.25 12.0101 13.25 12.0099 13.25 12.0098 C 13.25 12.0096 13.25 12.0095 13.25 12.0093 C 13.25 12.0092 13.25 12.009 13.25 12.0089 C 13.25 12.0087 13.25 12.0086 13.25 12.0085 C 13.25 12.0083 13.25 12.0082 13.25 12.008 C 13.25 12.0079 13.25 12.0078 13.25 12.0077 C 13.25 12.0075 13.25 12.0074 13.25 12.0073 C 13.25 12.0071 13.25 12.007 13.25 12.0069 C 13.25 12.0068 13.25 12.0067 13.25 12.0065 C 13.25 12.0064 13.25 12.0063 13.25 12.0062 C 13.25 12.0061 13.25 12.006 13.25 12.0059 C 13.25 12.0058 13.25 12.0057 13.25 12.0055 C 13.25 12.0054 13.25 12.0053 13.25 12.0052 C 13.25 12.0051 13.25 12.005 13.25 12.0049 C 13.25 12.0048 13.25 12.0047 13.25 12.0047 C 13.25 12.0046 13.25 12.0045 13.25 12.0044 C 13.25 12.0043 13.25 12.0042 13.25 12.0041 C 13.25 12.004 13.25 12.004 13.25 12.0039 C 13.25 12.0038 13.25 12.0037 13.25 12.0036 C 13.25 12.0035 13.25 12.0035 13.25 12.0034 C 13.25 12.0033 13.25 12.0032 13.25 12.0032 C 13.25 12.0031 13.25 12.003 13.25 12.003 C 13.25 12.0029 13.25 12.0028 13.25 12.0028 C 13.25 12.0027 13.25 12.0026 13.25 12.0026 C 13.25 12.0025 13.25 12.0024 13.25 12.0024 C 13.25 12.0023 13.25 12.0023 13.25 12.0022 C 13.25 12.0022 13.25 12.0021 13.25 12.002 C 13.25 12.002 13.25 12.0019 13.25 12.0019 C 13.25 12.0018 13.25 12.0018 13.25 12.0017 C 13.25 12.0017 13.25 12.0016 13.25 12.0016 C 13.25 12.0016 13.25 12.0015 13.25 12.0015 C 13.25 12.0014 13.25 12.0014 13.25 12.0013 C 13.25 12.0013 13.25 12.0013 13.25 12.0012 C 13.25 12.0012 13.25 12.0011 13.25 12.0011 C 13.25 12.0011 13.25 12.001 13.25 12.001 C 13.25 12.001 13.25 12.0009 13.25 12.0009 C 13.25 12.0009 13.25 12.0008 13.25 12.0008 C 13.25 12.0008 13.25 12.0008 13.25 12.0007 C 13.25 12.0007 13.25 12.0007 13.25 12.0007 C 13.25 12.0006 13.25 12.0006 13.25 12.0006 C 13.25 12.0006 13.25 12.0005 13.25 12.0005 C 13.25 12.0005 13.25 12.0005 13.25 12.0005 C 13.25 12.0004 13.25 12.0004 13.25 12.0004 C 13.25 12.0004 13.25 12.0004 13.25 12.0003 C 13.25 12.0003 13.25 12.0003 13.25 12.0003 C 13.25 12.0003 13.25 12.0003 13.25 12.0003 C 13.25 12.0002 13.25 12.0002 13.25 12.0002 C 13.25 12.0002 13.25 12.0002 13.25 12.0002 C 13.25 12.0002 13.25 12.0002 13.25 12.0002 C 13.25 12.0001 13.25 12.0001 13.25 12.0001 C 13.25 12.0001 13.25 12.0001 13.25 12.0001 C 13.25 12.0001 13.25 12.0001 13.25 12.0001 C 13.25 12.0001 13.25 12.0001 13.25 12.0001 C 13.25 12.0001 13.25 12.0001 13.25 12 C 13.25 12 13.25 12 13.25 12 C 13.25 12 13.25 12 13.25 12 C 13.25 12 13.25 12 13.25 12 C 13.25 12 13.25 12 13.25 12 C 13.25 12 13.25 12 13.25 12 C 13.25 12 13.25 12 13.25 12 C 13.25 12 13.25 12 13.25 12 C 13.25 12 13.25 12 13.25 12 C 13.25 12 13.25 12 13.25 12 C 13.25 12 13.25 12 13.25 12 L 12.5 12 Z M 13.25 12 L 13.25 7 L 11.75 7 L 11.75 12 L 13.25 12 Z" stroke-linecap="round" />
</g>
<g transform="matrix(NaN NaN NaN NaN 0 0)"  >
<g style=""   >
</g>
</g>
</svg>