<?xml version="1.0" encoding="UTF-8" standalone="no" ?>
<!DOCTYPE svg PUBLIC "-//W3C//DTD SVG 1.1//EN" "http://www.w3.org/Graphics/SVG/1.1/DTD/svg11.dtd">
<svg xmlns="http://www.w3.org/2000/svg" xmlns:xlink="http://www.w3.org/1999/xlink" version="1.1" width="1080" height="1080" viewBox="0 0 1080 1080" xml:space="preserve">
<desc>Created with Fabric.js 5.2.4</desc>
<defs>
</defs>
<g transform="matrix(1 0 0 1 540 540)" id="1fe6def5-728a-461d-ae25-cdeba837171e"  >
<rect style="stroke: none; stroke-width: 1; stroke-dasharray: none; stroke-linecap: butt; stroke-dashoffset: 0; stroke-linejoin: miter; stroke-miterlimit: 4; fill: rgb(255,255,255); fill-rule: nonzero; opacity: 1; visibility: hidden;" vector-effect="non-scaling-stroke"  x="-540" y="-540" rx="0" ry="0" width="1080" height="1080" />
</g>
<g transform="matrix(1 0 0 1 540 540)" id="611f0a09-9e98-4299-902f-a7d468f3cf43"  >
</g>
<g transform="matrix(1 0 0 1 540 540)"  >
<g style="" vector-effect="non-scaling-stroke"   >
		<g transform="matrix(1 0 0 1 0 0)"  >
<rect style="stroke: none; stroke-width: 1; stroke-dasharray: none; stroke-linecap: butt; stroke-dashoffset: 0; stroke-linejoin: miter; stroke-miterlimit: 4; fill: rgb(255,255,255); fill-rule: nonzero; opacity: 1; visibility: hidden;" vector-effect="non-scaling-stroke"  x="-540" y="-540" rx="0" ry="0" width="1080" height="1080" />
</g>
		<g transform="matrix(33.33 0 0 33.33 -183.33 -150)"  >
<rect style="stroke: none; stroke-width: 1; stroke-dasharray: none; stroke-linecap: butt; stroke-dashoffset: 0; stroke-linejoin: miter; stroke-miterlimit: 4; fill: rgb(190,49,68); fill-rule: nonzero; opacity: 1;" vector-effect="non-scaling-stroke"  x="-4.5" y="-5.5" rx="2" ry="2" width="9" height="11" />
</g>
		<g transform="matrix(33.33 0 0 33.33 183.33 -216.67)"  >
<rect style="stroke: none; stroke-width: 1; stroke-dasharray: none; stroke-linecap: butt; stroke-dashoffset: 0; stroke-linejoin: miter; stroke-miterlimit: 4; fill: rgb(190,49,68); fill-rule: nonzero; opacity: 1;" vector-effect="non-scaling-stroke"  x="-4.5" y="-3.5" rx="2" ry="2" width="9" height="7" />
</g>
		<g transform="matrix(33.33 0 0 33.33 -183.33 216.67)"  >
<rect style="stroke: none; stroke-width: 1; stroke-dasharray: none; stroke-linecap: butt; stroke-dashoffset: 0; stroke-linejoin: miter; stroke-miterlimit: 4; fill: rgb(190,49,68); fill-rule: nonzero; opacity: 1;" vector-effect="non-scaling-stroke"  x="-4.5" y="-3.5" rx="2" ry="2" width="9" height="7" />
</g>
		<g transform="matrix(33.33 0 0 33.33 183.33 150)"  >
<rect style="stroke: none; stroke-width: 1; stroke-dasharray: none; stroke-linecap: butt; stroke-dashoffset: 0; stroke-linejoin: miter; stroke-miterlimit: 4; fill: rgb(190,49,68); fill-rule: nonzero; opacity: 1;" vector-effect="non-scaling-stroke"  x="-4.5" y="-5.5" rx="2" ry="2" width="9" height="11" />
</g>
</g>
</g>
</svg>