<?xml version="1.0" encoding="UTF-8" standalone="no" ?>
<!DOCTYPE svg PUBLIC "-//W3C//DTD SVG 1.1//EN" "http://www.w3.org/Graphics/SVG/1.1/DTD/svg11.dtd">
<svg xmlns="http://www.w3.org/2000/svg" xmlns:xlink="http://www.w3.org/1999/xlink" version="1.1" width="1080" height="1080" viewBox="0 0 1080 1080" xml:space="preserve">
<desc>Created with Fabric.js 5.2.4</desc>
<defs>
</defs>
<rect x="0" y="0" width="100%" height="100%" fill="transparent"></rect>
<g transform="matrix(1 0 0 1 540 540)" id="1bdce75a-5248-4848-a5df-d78e0a286009"  >
<rect style="stroke: none; stroke-width: 1; stroke-dasharray: none; stroke-linecap: butt; stroke-dashoffset: 0; stroke-linejoin: miter; stroke-miterlimit: 4; fill: rgb(255,255,255); fill-rule: nonzero; opacity: 1; visibility: hidden;" vector-effect="non-scaling-stroke"  x="-540" y="-540" rx="0" ry="0" width="1080" height="1080" />
</g>
<g transform="matrix(1 0 0 1 540 540)" id="549e6f0e-035a-47ce-adbe-cc752e3061db"  >
</g>
<g transform="matrix(66 0 0 66 540 540)" id="e4e1d8dd-92da-4b0a-ace7-a985d1d7fd2d"  >
<path style="stroke: rgb(0,0,0); stroke-width: 0; stroke-dasharray: none; stroke-linecap: butt; stroke-dashoffset: 0; stroke-linejoin: miter; stroke-miterlimit: 4; fill: rgb(190,49,68); fill-rule: nonzero; opacity: 1;" vector-effect="non-scaling-stroke"  transform=" translate(-12, -12.5)" d="M 4.29289 8.29289 C 4.68342 7.90237 5.31658 7.90237 5.70711 8.29289 L 12 14.5858 L 18.2929 8.29289 C 18.6834 7.90237 19.3166 7.90237 19.7071 8.29289 C 20.0976 8.68342 20.0976 9.31658 19.7071 9.70711 L 12.7071 16.7071 C 12.3166 17.0976 11.6834 17.0976 11.2929 16.7071 L 4.29289 9.70711 C 3.90237 9.31658 3.90237 8.68342 4.29289 8.29289 Z" stroke-linecap="round" />
</g>
<g transform="matrix(NaN NaN NaN NaN 0 0)"  >
<g style=""   >
</g>
</g>
</svg>