<svg width="512" height="512" xmlns="http://www.w3.org/2000/svg">
 <g>
  <title>Layer 1</title>
  <text fill="#000000" stroke="#000" stroke-width="0" x="161.8705" y="76.97837" id="svg_3" font-size="24" font-family="Noto Sans JP" text-anchor="start" xml:space="preserve"/>
  <path stroke="#be3144" id="svg_6" d="m119.16155,109.28l45.21429,-90.42857l120.57144,0l45.21428,90.42857l-45.21428,90.42857l-120.57144,0l-45.21429,-90.42857z" stroke-width="15" fill="#be3144"/>
  <path transform="rotate(-1 368.584 327.294)" stroke="#be3144" id="svg_7" d="m290.58311,327.29385l33.42857,-66.85714l89.14287,0l33.42857,66.85714l-33.42857,66.85715l-89.14287,0l-33.42857,-66.85715z" stroke-width="15" fill="#be3144"/>
  <path transform="rotate(-1 346.478 329.399)" stroke="#be3144" id="svg_8" d="m110.58883,426.6055l23.78572,-47.57143l63.42858,0l23.78571,47.57143l-23.78571,47.57143l-63.42858,0l-23.78572,-47.57143z" stroke-width="15" fill="#be3144"/>
  <line transform="rotate(62 293.566 223.097)" stroke="#be3144" id="svg_10" y2="223.09727" x2="458.58551" y1="223.09727" x1="128.54739" stroke-width="15" fill="none"/>
  <line id="svg_11" y2="398.53026" x2="172.84161" y1="319.58242" x1="304.42135" stroke-width="15" stroke="#be3144" fill="none"/>
 </g>

</svg>