<?xml version="1.0" encoding="UTF-8" standalone="no" ?>
<!DOCTYPE svg PUBLIC "-//W3C//DTD SVG 1.1//EN" "http://www.w3.org/Graphics/SVG/1.1/DTD/svg11.dtd">
<svg xmlns="http://www.w3.org/2000/svg" xmlns:xlink="http://www.w3.org/1999/xlink" version="1.1" width="1080" height="1080" viewBox="0 0 1080 1080" xml:space="preserve">
<desc>Created with Fabric.js 5.2.4</desc>
<defs>
</defs>
<g transform="matrix(1 0 0 1 540 540)" id="f5500825-f0eb-4661-8d63-3329c5406fa2"  >
</g>
<g transform="matrix(1 0 0 1 540 540)" id="a0a39f2b-1247-4346-b18a-ec74f62dfe37"  >
<rect style="stroke: none; stroke-width: 1; stroke-dasharray: none; stroke-linecap: butt; stroke-dashoffset: 0; stroke-linejoin: miter; stroke-miterlimit: 4; fill: rgb(255,255,255); fill-rule: nonzero; opacity: 1; visibility: hidden;" vector-effect="non-scaling-stroke"  x="-540" y="-540" rx="0" ry="0" width="1080" height="1080" />
</g>
<g transform="matrix(34.93 0 0 34.93 540 540)"  >
<path style="stroke: rgb(190,49,68); stroke-width: 0; stroke-dasharray: none; stroke-linecap: butt; stroke-dashoffset: 0; stroke-linejoin: miter; stroke-miterlimit: 4; fill: rgb(190,49,68); fill-rule: nonzero; opacity: 1;" vector-effect="non-scaling-stroke"  transform=" translate(-118, -377)" d="M 118 382 C 115.261 382 113.042 379.762 113.042 377 C 113.042 374.238 115.261 372 118 372 C 120.739 372 122.959 374.238 122.959 377 C 122.959 379.762 120.739 382 118 382 L 118 382 Z M 132.008 380.536 L 129.685 379.184 C 129.815 378.474 129.901 377.749 129.901 377 C 129.901 376.252 129.815 375.526 129.685 374.816 L 132.008 373.464 C 132.957 372.912 133.281 371.688 132.733 370.732 L 130.75 367.268 C 130.203 366.312 128.989 365.983 128.041 366.536 L 125.694 367.901 C 124.598 366.961 123.352 366.192 121.967 365.697 L 121.967 364 C 121.967 362.896 121.079 362 119.983 362 L 116.017 362 C 114.921 362 114.033 362.896 114.033 364 L 114.033 365.697 C 112.648 366.192 111.402 366.961 110.306 367.901 L 107.959 366.536 C 107.011 365.983 105.797 366.312 105.25 367.268 L 103.267 370.732 C 102.719 371.688 103.044 372.912 103.992 373.464 L 106.315 374.816 C 106.185 375.526 106.099 376.252 106.099 377 C 106.099 377.749 106.185 378.474 106.315 379.184 L 103.992 380.536 C 103.044 381.088 102.719 382.312 103.267 383.268 L 105.25 386.732 C 105.797 387.688 107.011 388.017 107.959 387.464 L 110.306 386.099 C 111.402 387.039 112.648 387.809 114.033 388.303 L 114.033 390 C 114.033 391.104 114.921 392 116.017 392 L 119.983 392 C 121.079 392 121.967 391.104 121.967 390 L 121.967 388.303 C 123.352 387.809 124.598 387.039 125.694 386.099 L 128.041 387.464 C 128.989 388.017 130.203 387.688 130.75 386.732 L 132.733 383.268 C 133.281 382.312 132.957 381.088 132.008 380.536 L 132.008 380.536 Z M 118 374 C 116.357 374 115.025 375.344 115.025 377 C 115.025 378.657 116.357 380 118 380 C 119.643 380 120.975 378.657 120.975 377 C 120.975 375.344 119.643 374 118 374 L 118 374 Z" stroke-linecap="round" />
</g>
<g transform="matrix(NaN NaN NaN NaN 0 0)"  >
<g style=""   >
</g>
</g>
<g transform="matrix(NaN NaN NaN NaN 0 0)"  >
<g style=""   >
</g>
</g>
</svg>