<?xml version="1.0" encoding="UTF-8" standalone="no" ?>
<!DOCTYPE svg PUBLIC "-//W3C//DTD SVG 1.1//EN" "http://www.w3.org/Graphics/SVG/1.1/DTD/svg11.dtd">
<svg xmlns="http://www.w3.org/2000/svg" xmlns:xlink="http://www.w3.org/1999/xlink" version="1.1" width="1080" height="1080" viewBox="0 0 1080 1080" xml:space="preserve">
<desc>Created with Fabric.js 5.2.4</desc>
<defs>
</defs>
<g transform="matrix(1 0 0 1 540 540)" id="2f04e733-863f-43d3-a5a5-16354d3d9ce8"  >
<rect style="stroke: none; stroke-width: 1; stroke-dasharray: none; stroke-linecap: butt; stroke-dashoffset: 0; stroke-linejoin: miter; stroke-miterlimit: 4; fill: rgb(255,255,255); fill-rule: nonzero; opacity: 1; visibility: hidden;" vector-effect="non-scaling-stroke"  x="-540" y="-540" rx="0" ry="0" width="1080" height="1080" />
</g>
<g transform="matrix(1 0 0 1 540 540)" id="0bc2de1f-7c49-46e7-9700-1c28d45a86dd"  >
</g>
<g transform="matrix(66.22 0 0 66.22 540 540)" id="d6053ad3-ede4-4663-b5a9-1e93582841a6"  >
<path style="stroke: rgb(0,0,0); stroke-width: 0; stroke-dasharray: none; stroke-linecap: butt; stroke-dashoffset: 0; stroke-linejoin: miter; stroke-miterlimit: 4; fill: rgb(190,49,68); fill-rule: nonzero; opacity: 1;" vector-effect="non-scaling-stroke"  transform=" translate(-12, -11.5)" d="M 12 7 C 12.2652 7 12.5196 7.10536 12.7071 7.29289 L 19.7071 14.2929 C 20.0976 14.6834 20.0976 15.3166 19.7071 15.7071 C 19.3166 16.0976 18.6834 16.0976 18.2929 15.7071 L 12 9.41421 L 5.70711 15.7071 C 5.31658 16.0976 4.68342 16.0976 4.29289 15.7071 C 3.90237 15.3166 3.90237 14.6834 4.29289 14.2929 L 11.2929 7.29289 C 11.4804 7.10536 11.7348 7 12 7 Z" stroke-linecap="round" />
</g>
<g transform="matrix(NaN NaN NaN NaN 0 0)"  >
<g style=""   >
</g>
</g>
</svg>